solid OpenSCAD_Model
  facet normal 1 -0 0
    outer loop
      vertex 67.2 0 2
      vertex 67.2 33.2 0
      vertex 67.2 33.2 2
    endloop
  endfacet
  facet normal 1 0 0
    outer loop
      vertex 67.2 33.2 0
      vertex 67.2 0 2
      vertex 67.2 0 0
    endloop
  endfacet
  facet normal 0 0 1
    outer loop
      vertex 53.6 4 2
      vertex 67.2 33.2 2
      vertex 53.6 29.4 2
    endloop
  endfacet
  facet normal 0 0 1
    outer loop
      vertex 67.2 33.2 2
      vertex 13.6 29.4 2
      vertex 53.6 29.4 2
    endloop
  endfacet
  facet normal 0 0 1
    outer loop
      vertex 13.6 29.4 2
      vertex 0 33.2 2
      vertex 13.6 4 2
    endloop
  endfacet
  facet normal -0 0 1
    outer loop
      vertex 0 33.2 2
      vertex 13.6 29.4 2
      vertex 67.2 33.2 2
    endloop
  endfacet
  facet normal 0 0 1
    outer loop
      vertex 67.2 33.2 2
      vertex 53.6 4 2
      vertex 67.2 0 2
    endloop
  endfacet
  facet normal -0 0 1
    outer loop
      vertex 13.6 4 2
      vertex 67.2 0 2
      vertex 53.6 4 2
    endloop
  endfacet
  facet normal 0 0 1
    outer loop
      vertex 13.6 4 2
      vertex 0 0 2
      vertex 67.2 0 2
    endloop
  endfacet
  facet normal 0 0 1
    outer loop
      vertex 0 0 2
      vertex 13.6 4 2
      vertex 0 33.2 2
    endloop
  endfacet
  facet normal 0 0 -1
    outer loop
      vertex 67.2 0 0
      vertex 53.6 4 0
      vertex 67.2 33.2 0
    endloop
  endfacet
  facet normal 0 0 -1
    outer loop
      vertex 67.2 0 0
      vertex 13.6 4 0
      vertex 53.6 4 0
    endloop
  endfacet
  facet normal 0 0 -1
    outer loop
      vertex 0 33.2 0
      vertex 13.6 4 0
      vertex 0 0 0
    endloop
  endfacet
  facet normal 0 0 -1
    outer loop
      vertex 0 0 0
      vertex 13.6 4 0
      vertex 67.2 0 0
    endloop
  endfacet
  facet normal 0 0 -1
    outer loop
      vertex 53.6 29.4 0
      vertex 67.2 33.2 0
      vertex 53.6 4 0
    endloop
  endfacet
  facet normal 0 0 -1
    outer loop
      vertex 13.6 29.4 0
      vertex 67.2 33.2 0
      vertex 53.6 29.4 0
    endloop
  endfacet
  facet normal 0 0 -1
    outer loop
      vertex 13.6 29.4 0
      vertex 0 33.2 0
      vertex 67.2 33.2 0
    endloop
  endfacet
  facet normal 0 0 -1
    outer loop
      vertex 13.6 4 0
      vertex 0 33.2 0
      vertex 13.6 29.4 0
    endloop
  endfacet
  facet normal -1 0 0
    outer loop
      vertex 0 0 0
      vertex 0 33.2 2
      vertex 0 33.2 0
    endloop
  endfacet
  facet normal -1 -0 0
    outer loop
      vertex 0 33.2 2
      vertex 0 0 0
      vertex 0 0 2
    endloop
  endfacet
  facet normal 0 1 -0
    outer loop
      vertex 67.2 33.2 0
      vertex 0 33.2 2
      vertex 67.2 33.2 2
    endloop
  endfacet
  facet normal 0 1 0
    outer loop
      vertex 0 33.2 2
      vertex 67.2 33.2 0
      vertex 0 33.2 0
    endloop
  endfacet
  facet normal 0 -1 0
    outer loop
      vertex 0 0 0
      vertex 67.2 0 2
      vertex 0 0 2
    endloop
  endfacet
  facet normal 0 -1 -0
    outer loop
      vertex 67.2 0 2
      vertex 0 0 0
      vertex 67.2 0 0
    endloop
  endfacet
  facet normal -1 0 0
    outer loop
      vertex 53.6 4 0
      vertex 53.6 29.4 2
      vertex 53.6 29.4 0
    endloop
  endfacet
  facet normal -1 -0 0
    outer loop
      vertex 53.6 29.4 2
      vertex 53.6 4 0
      vertex 53.6 4 2
    endloop
  endfacet
  facet normal 1 -0 0
    outer loop
      vertex 13.6 4 2
      vertex 13.6 29.4 0
      vertex 13.6 29.4 2
    endloop
  endfacet
  facet normal 1 0 0
    outer loop
      vertex 13.6 29.4 0
      vertex 13.6 4 2
      vertex 13.6 4 0
    endloop
  endfacet
  facet normal 0 -1 0
    outer loop
      vertex 13.6 29.4 0
      vertex 53.6 29.4 2
      vertex 13.6 29.4 2
    endloop
  endfacet
  facet normal 0 -1 -0
    outer loop
      vertex 53.6 29.4 2
      vertex 13.6 29.4 0
      vertex 53.6 29.4 0
    endloop
  endfacet
  facet normal 0 1 -0
    outer loop
      vertex 53.6 4 0
      vertex 13.6 4 2
      vertex 53.6 4 2
    endloop
  endfacet
  facet normal 0 1 0
    outer loop
      vertex 13.6 4 2
      vertex 53.6 4 0
      vertex 13.6 4 0
    endloop
  endfacet
endsolid OpenSCAD_Model
