solid OpenSCAD_Model
  facet normal 1 0 0
    outer loop
      vertex 32 184.8 6.2
      vertex 32 183.4 6.2
      vertex 32 184.8 3
    endloop
  endfacet
  facet normal 1 -0 0
    outer loop
      vertex 32 184.8 3
      vertex 32 193 1.90735e-07
      vertex 32 193 3
    endloop
  endfacet
  facet normal 1 0 0
    outer loop
      vertex 32 184.8 3
      vertex 32 183.4 1.90735e-07
      vertex 32 193 1.90735e-07
    endloop
  endfacet
  facet normal 1 0 0
    outer loop
      vertex 32 183.4 1.90735e-07
      vertex 32 184.8 3
      vertex 32 183.4 6.2
    endloop
  endfacet
  facet normal 0 0 -1
    outer loop
      vertex 30.9355 189.678 1.90735e-07
      vertex 32 193 1.90735e-07
      vertex 32 183.4 1.90735e-07
    endloop
  endfacet
  facet normal 0 0 -1
    outer loop
      vertex 32 193 1.90735e-07
      vertex 30.9355 189.678 1.90735e-07
      vertex 30.95 189.9 1.90735e-07
    endloop
  endfacet
  facet normal 0 0 -1
    outer loop
      vertex 32 183.4 1.90735e-07
      vertex 30.8921 189.46 1.90735e-07
      vertex 30.9355 189.678 1.90735e-07
    endloop
  endfacet
  facet normal 0 0 -1
    outer loop
      vertex 32 183.4 1.90735e-07
      vertex 30.8206 189.249 1.90735e-07
      vertex 30.8921 189.46 1.90735e-07
    endloop
  endfacet
  facet normal 0 0 -1
    outer loop
      vertex 32 183.4 1.90735e-07
      vertex 30.7222 189.05 1.90735e-07
      vertex 30.8206 189.249 1.90735e-07
    endloop
  endfacet
  facet normal 0 0 -1
    outer loop
      vertex 32 183.4 1.90735e-07
      vertex 30.5987 188.865 1.90735e-07
      vertex 30.7222 189.05 1.90735e-07
    endloop
  endfacet
  facet normal 0 0 -1
    outer loop
      vertex 32 183.4 1.90735e-07
      vertex 30.4521 188.698 1.90735e-07
      vertex 30.5987 188.865 1.90735e-07
    endloop
  endfacet
  facet normal 0 0 -1
    outer loop
      vertex 32 183.4 1.90735e-07
      vertex 30.2849 188.551 1.90735e-07
      vertex 30.4521 188.698 1.90735e-07
    endloop
  endfacet
  facet normal 0 0 -1
    outer loop
      vertex 32 183.4 1.90735e-07
      vertex 30.1 188.428 1.90735e-07
      vertex 30.2849 188.551 1.90735e-07
    endloop
  endfacet
  facet normal 0 0 -1
    outer loop
      vertex 32 183.4 1.90735e-07
      vertex 29.9006 188.329 1.90735e-07
      vertex 30.1 188.428 1.90735e-07
    endloop
  endfacet
  facet normal 0 0 -1
    outer loop
      vertex 32 183.4 1.90735e-07
      vertex 29.69 188.258 1.90735e-07
      vertex 29.9006 188.329 1.90735e-07
    endloop
  endfacet
  facet normal 0 0 -1
    outer loop
      vertex 32 183.4 1.90735e-07
      vertex 29.4719 188.215 1.90735e-07
      vertex 29.69 188.258 1.90735e-07
    endloop
  endfacet
  facet normal 0 0 -1
    outer loop
      vertex 32 183.4 1.90735e-07
      vertex 29.25 188.2 1.90735e-07
      vertex 29.4719 188.215 1.90735e-07
    endloop
  endfacet
  facet normal 0 0 -1
    outer loop
      vertex 26.3 183.4 1.90735e-07
      vertex 29.25 188.2 1.90735e-07
      vertex 32 183.4 1.90735e-07
    endloop
  endfacet
  facet normal -0 0 -1
    outer loop
      vertex 29.25 188.2 1.90735e-07
      vertex 26.3 183.4 1.90735e-07
      vertex 29.0281 188.215 1.90735e-07
    endloop
  endfacet
  facet normal -0 0 -1
    outer loop
      vertex 29.0281 188.215 1.90735e-07
      vertex 26.3 183.4 1.90735e-07
      vertex 28.81 188.258 1.90735e-07
    endloop
  endfacet
  facet normal -0 0 -1
    outer loop
      vertex 28.81 188.258 1.90735e-07
      vertex 26.3 183.4 1.90735e-07
      vertex 28.5994 188.329 1.90735e-07
    endloop
  endfacet
  facet normal -0 0 -1
    outer loop
      vertex 28.5994 188.329 1.90735e-07
      vertex 26.3 183.4 1.90735e-07
      vertex 28.4 188.428 1.90735e-07
    endloop
  endfacet
  facet normal -0 0 -1
    outer loop
      vertex 28.4 188.428 1.90735e-07
      vertex 26.3 183.4 1.90735e-07
      vertex 28.2151 188.551 1.90735e-07
    endloop
  endfacet
  facet normal -0 0 -1
    outer loop
      vertex 28.2151 188.551 1.90735e-07
      vertex 26.3 183.4 1.90735e-07
      vertex 28.0479 188.698 1.90735e-07
    endloop
  endfacet
  facet normal 0 0 -1
    outer loop
      vertex 26.3 193 1.90735e-07
      vertex 27.5645 189.678 1.90735e-07
      vertex 26.3 183.4 1.90735e-07
    endloop
  endfacet
  facet normal -0 0 -1
    outer loop
      vertex 27.6079 189.46 1.90735e-07
      vertex 26.3 183.4 1.90735e-07
      vertex 27.5645 189.678 1.90735e-07
    endloop
  endfacet
  facet normal -0 0 -1
    outer loop
      vertex 27.6794 189.249 1.90735e-07
      vertex 26.3 183.4 1.90735e-07
      vertex 27.6079 189.46 1.90735e-07
    endloop
  endfacet
  facet normal -0 0 -1
    outer loop
      vertex 27.7778 189.05 1.90735e-07
      vertex 26.3 183.4 1.90735e-07
      vertex 27.6794 189.249 1.90735e-07
    endloop
  endfacet
  facet normal -0 0 -1
    outer loop
      vertex 27.9013 188.865 1.90735e-07
      vertex 26.3 183.4 1.90735e-07
      vertex 27.7778 189.05 1.90735e-07
    endloop
  endfacet
  facet normal -0 0 -1
    outer loop
      vertex 28.0479 188.698 1.90735e-07
      vertex 26.3 183.4 1.90735e-07
      vertex 27.9013 188.865 1.90735e-07
    endloop
  endfacet
  facet normal 0 0 -1
    outer loop
      vertex 30.9355 190.122 1.90735e-07
      vertex 32 193 1.90735e-07
      vertex 30.95 189.9 1.90735e-07
    endloop
  endfacet
  facet normal 0 0 -1
    outer loop
      vertex 30.8921 190.34 1.90735e-07
      vertex 32 193 1.90735e-07
      vertex 30.9355 190.122 1.90735e-07
    endloop
  endfacet
  facet normal 0 0 -1
    outer loop
      vertex 30.8206 190.551 1.90735e-07
      vertex 32 193 1.90735e-07
      vertex 30.8921 190.34 1.90735e-07
    endloop
  endfacet
  facet normal 0 0 -1
    outer loop
      vertex 30.7222 190.75 1.90735e-07
      vertex 32 193 1.90735e-07
      vertex 30.8206 190.551 1.90735e-07
    endloop
  endfacet
  facet normal 0 0 -1
    outer loop
      vertex 30.5987 190.935 1.90735e-07
      vertex 32 193 1.90735e-07
      vertex 30.7222 190.75 1.90735e-07
    endloop
  endfacet
  facet normal 0 0 -1
    outer loop
      vertex 30.4521 191.102 1.90735e-07
      vertex 32 193 1.90735e-07
      vertex 30.5987 190.935 1.90735e-07
    endloop
  endfacet
  facet normal 0 0 -1
    outer loop
      vertex 30.2849 191.249 1.90735e-07
      vertex 32 193 1.90735e-07
      vertex 30.4521 191.102 1.90735e-07
    endloop
  endfacet
  facet normal 0 0 -1
    outer loop
      vertex 30.1 191.372 1.90735e-07
      vertex 32 193 1.90735e-07
      vertex 30.2849 191.249 1.90735e-07
    endloop
  endfacet
  facet normal 0 0 -1
    outer loop
      vertex 29.9006 191.471 1.90735e-07
      vertex 32 193 1.90735e-07
      vertex 30.1 191.372 1.90735e-07
    endloop
  endfacet
  facet normal 0 0 -1
    outer loop
      vertex 29.69 191.542 1.90735e-07
      vertex 32 193 1.90735e-07
      vertex 29.9006 191.471 1.90735e-07
    endloop
  endfacet
  facet normal 0 0 -1
    outer loop
      vertex 29.4719 191.585 1.90735e-07
      vertex 32 193 1.90735e-07
      vertex 29.69 191.542 1.90735e-07
    endloop
  endfacet
  facet normal 0 0 -1
    outer loop
      vertex 29.25 191.6 1.90735e-07
      vertex 32 193 1.90735e-07
      vertex 29.4719 191.585 1.90735e-07
    endloop
  endfacet
  facet normal 0 0 -1
    outer loop
      vertex 26.3 193 1.90735e-07
      vertex 29.25 191.6 1.90735e-07
      vertex 29.0281 191.585 1.90735e-07
    endloop
  endfacet
  facet normal 0 0 -1
    outer loop
      vertex 26.3 193 1.90735e-07
      vertex 29.0281 191.585 1.90735e-07
      vertex 28.81 191.542 1.90735e-07
    endloop
  endfacet
  facet normal 0 0 -1
    outer loop
      vertex 26.3 193 1.90735e-07
      vertex 28.81 191.542 1.90735e-07
      vertex 28.5994 191.471 1.90735e-07
    endloop
  endfacet
  facet normal 0 0 -1
    outer loop
      vertex 27.5645 189.678 1.90735e-07
      vertex 26.3 193 1.90735e-07
      vertex 27.55 189.9 1.90735e-07
    endloop
  endfacet
  facet normal 0 0 -1
    outer loop
      vertex 29.25 191.6 1.90735e-07
      vertex 26.3 193 1.90735e-07
      vertex 32 193 1.90735e-07
    endloop
  endfacet
  facet normal 0 0 -1
    outer loop
      vertex 28.4 191.372 1.90735e-07
      vertex 26.3 193 1.90735e-07
      vertex 28.5994 191.471 1.90735e-07
    endloop
  endfacet
  facet normal 0 0 -1
    outer loop
      vertex 28.2151 191.249 1.90735e-07
      vertex 26.3 193 1.90735e-07
      vertex 28.4 191.372 1.90735e-07
    endloop
  endfacet
  facet normal 0 0 -1
    outer loop
      vertex 28.0479 191.102 1.90735e-07
      vertex 26.3 193 1.90735e-07
      vertex 28.2151 191.249 1.90735e-07
    endloop
  endfacet
  facet normal 0 0 -1
    outer loop
      vertex 27.9013 190.935 1.90735e-07
      vertex 26.3 193 1.90735e-07
      vertex 28.0479 191.102 1.90735e-07
    endloop
  endfacet
  facet normal 0 0 -1
    outer loop
      vertex 27.7778 190.75 1.90735e-07
      vertex 26.3 193 1.90735e-07
      vertex 27.9013 190.935 1.90735e-07
    endloop
  endfacet
  facet normal 0 0 -1
    outer loop
      vertex 27.6794 190.551 1.90735e-07
      vertex 26.3 193 1.90735e-07
      vertex 27.7778 190.75 1.90735e-07
    endloop
  endfacet
  facet normal 0 0 -1
    outer loop
      vertex 27.6079 190.34 1.90735e-07
      vertex 26.3 193 1.90735e-07
      vertex 27.6794 190.551 1.90735e-07
    endloop
  endfacet
  facet normal 0 0 -1
    outer loop
      vertex 27.5645 190.122 1.90735e-07
      vertex 26.3 193 1.90735e-07
      vertex 27.6079 190.34 1.90735e-07
    endloop
  endfacet
  facet normal 0 0 -1
    outer loop
      vertex 27.55 189.9 1.90735e-07
      vertex 26.3 193 1.90735e-07
      vertex 27.5645 190.122 1.90735e-07
    endloop
  endfacet
  facet normal 0 0 1
    outer loop
      vertex 30.9355 189.678 3
      vertex 32 193 3
      vertex 30.95 189.9 3
    endloop
  endfacet
  facet normal 0 0 1
    outer loop
      vertex 32 193 3
      vertex 30.9355 190.122 3
      vertex 30.95 189.9 3
    endloop
  endfacet
  facet normal 0 0 1
    outer loop
      vertex 32 193 3
      vertex 30.8921 190.34 3
      vertex 30.9355 190.122 3
    endloop
  endfacet
  facet normal 0 0 1
    outer loop
      vertex 32 193 3
      vertex 30.8206 190.551 3
      vertex 30.8921 190.34 3
    endloop
  endfacet
  facet normal 0 0 1
    outer loop
      vertex 32 193 3
      vertex 30.7222 190.75 3
      vertex 30.8206 190.551 3
    endloop
  endfacet
  facet normal 0 0 1
    outer loop
      vertex 32 193 3
      vertex 30.5987 190.935 3
      vertex 30.7222 190.75 3
    endloop
  endfacet
  facet normal 0 0 1
    outer loop
      vertex 32 193 3
      vertex 30.4521 191.102 3
      vertex 30.5987 190.935 3
    endloop
  endfacet
  facet normal 0 0 1
    outer loop
      vertex 32 193 3
      vertex 30.2849 191.249 3
      vertex 30.4521 191.102 3
    endloop
  endfacet
  facet normal 0 0 1
    outer loop
      vertex 32 193 3
      vertex 30.1 191.372 3
      vertex 30.2849 191.249 3
    endloop
  endfacet
  facet normal 0 0 1
    outer loop
      vertex 32 193 3
      vertex 29.9006 191.471 3
      vertex 30.1 191.372 3
    endloop
  endfacet
  facet normal 0 0 1
    outer loop
      vertex 32 193 3
      vertex 29.69 191.542 3
      vertex 29.9006 191.471 3
    endloop
  endfacet
  facet normal 0 0 1
    outer loop
      vertex 32 193 3
      vertex 29.4719 191.585 3
      vertex 29.69 191.542 3
    endloop
  endfacet
  facet normal 0 0 1
    outer loop
      vertex 32 193 3
      vertex 29.25 191.6 3
      vertex 29.4719 191.585 3
    endloop
  endfacet
  facet normal -0 0 1
    outer loop
      vertex 26.3 193 3
      vertex 29.25 191.6 3
      vertex 32 193 3
    endloop
  endfacet
  facet normal 0 0 1
    outer loop
      vertex 29.25 191.6 3
      vertex 26.3 193 3
      vertex 29.0281 191.585 3
    endloop
  endfacet
  facet normal 0 0 1
    outer loop
      vertex 29.0281 191.585 3
      vertex 26.3 193 3
      vertex 28.81 191.542 3
    endloop
  endfacet
  facet normal 0 0 1
    outer loop
      vertex 27.5645 190.122 3
      vertex 26.3 193 3
      vertex 27.55 189.9 3
    endloop
  endfacet
  facet normal 0 0 1
    outer loop
      vertex 27.6079 190.34 3
      vertex 26.3 193 3
      vertex 27.5645 190.122 3
    endloop
  endfacet
  facet normal 0 0 1
    outer loop
      vertex 27.6794 190.551 3
      vertex 26.3 193 3
      vertex 27.6079 190.34 3
    endloop
  endfacet
  facet normal 0 0 1
    outer loop
      vertex 27.7778 190.75 3
      vertex 26.3 193 3
      vertex 27.6794 190.551 3
    endloop
  endfacet
  facet normal 0 0 1
    outer loop
      vertex 27.9013 190.935 3
      vertex 26.3 193 3
      vertex 27.7778 190.75 3
    endloop
  endfacet
  facet normal 0 0 1
    outer loop
      vertex 28.0479 191.102 3
      vertex 26.3 193 3
      vertex 27.9013 190.935 3
    endloop
  endfacet
  facet normal 0 0 1
    outer loop
      vertex 28.2151 191.249 3
      vertex 26.3 193 3
      vertex 28.0479 191.102 3
    endloop
  endfacet
  facet normal 0 0 1
    outer loop
      vertex 28.4 191.372 3
      vertex 26.3 193 3
      vertex 28.2151 191.249 3
    endloop
  endfacet
  facet normal 0 0 1
    outer loop
      vertex 28.5994 191.471 3
      vertex 26.3 193 3
      vertex 28.4 191.372 3
    endloop
  endfacet
  facet normal 0 0 1
    outer loop
      vertex 28.81 191.542 3
      vertex 26.3 193 3
      vertex 28.5994 191.471 3
    endloop
  endfacet
  facet normal 0 0 1
    outer loop
      vertex 32 193 3
      vertex 30.9355 189.678 3
      vertex 32 184.8 3
    endloop
  endfacet
  facet normal -0 0 1
    outer loop
      vertex 30.8921 189.46 3
      vertex 32 184.8 3
      vertex 30.9355 189.678 3
    endloop
  endfacet
  facet normal -0 0 1
    outer loop
      vertex 30.8206 189.249 3
      vertex 32 184.8 3
      vertex 30.8921 189.46 3
    endloop
  endfacet
  facet normal -0 0 1
    outer loop
      vertex 30.7222 189.05 3
      vertex 32 184.8 3
      vertex 30.8206 189.249 3
    endloop
  endfacet
  facet normal -0 0 1
    outer loop
      vertex 30.5987 188.865 3
      vertex 32 184.8 3
      vertex 30.7222 189.05 3
    endloop
  endfacet
  facet normal -0 0 1
    outer loop
      vertex 30.4521 188.698 3
      vertex 32 184.8 3
      vertex 30.5987 188.865 3
    endloop
  endfacet
  facet normal -0 0 1
    outer loop
      vertex 30.2849 188.551 3
      vertex 32 184.8 3
      vertex 30.4521 188.698 3
    endloop
  endfacet
  facet normal -0 0 1
    outer loop
      vertex 30.1 188.428 3
      vertex 32 184.8 3
      vertex 30.2849 188.551 3
    endloop
  endfacet
  facet normal -0 0 1
    outer loop
      vertex 29.9006 188.329 3
      vertex 32 184.8 3
      vertex 30.1 188.428 3
    endloop
  endfacet
  facet normal -0 0 1
    outer loop
      vertex 29.69 188.258 3
      vertex 32 184.8 3
      vertex 29.9006 188.329 3
    endloop
  endfacet
  facet normal -0 0 1
    outer loop
      vertex 29.4719 188.215 3
      vertex 32 184.8 3
      vertex 29.69 188.258 3
    endloop
  endfacet
  facet normal -0 0 1
    outer loop
      vertex 29.25 188.2 3
      vertex 32 184.8 3
      vertex 29.4719 188.215 3
    endloop
  endfacet
  facet normal 0 0 1
    outer loop
      vertex 26.3 184.8 3
      vertex 29.25 188.2 3
      vertex 29.0281 188.215 3
    endloop
  endfacet
  facet normal 0 0 1
    outer loop
      vertex 26.3 184.8 3
      vertex 29.0281 188.215 3
      vertex 28.81 188.258 3
    endloop
  endfacet
  facet normal 0 0 1
    outer loop
      vertex 26.3 184.8 3
      vertex 28.81 188.258 3
      vertex 28.5994 188.329 3
    endloop
  endfacet
  facet normal 0 0 1
    outer loop
      vertex 26.3 184.8 3
      vertex 28.5994 188.329 3
      vertex 28.4 188.428 3
    endloop
  endfacet
  facet normal 0 0 1
    outer loop
      vertex 26.3 184.8 3
      vertex 28.4 188.428 3
      vertex 28.2151 188.551 3
    endloop
  endfacet
  facet normal 0 0 1
    outer loop
      vertex 26.3 184.8 3
      vertex 28.2151 188.551 3
      vertex 28.0479 188.698 3
    endloop
  endfacet
  facet normal 0 0 1
    outer loop
      vertex 26.3 193 3
      vertex 27.5645 189.678 3
      vertex 27.55 189.9 3
    endloop
  endfacet
  facet normal 0 0 1
    outer loop
      vertex 26.3 184.8 3
      vertex 27.5645 189.678 3
      vertex 26.3 193 3
    endloop
  endfacet
  facet normal 0 0 1
    outer loop
      vertex 27.5645 189.678 3
      vertex 26.3 184.8 3
      vertex 27.6079 189.46 3
    endloop
  endfacet
  facet normal 0 0 1
    outer loop
      vertex 29.25 188.2 3
      vertex 26.3 184.8 3
      vertex 32 184.8 3
    endloop
  endfacet
  facet normal 0 0 1
    outer loop
      vertex 27.9013 188.865 3
      vertex 26.3 184.8 3
      vertex 28.0479 188.698 3
    endloop
  endfacet
  facet normal 0 0 1
    outer loop
      vertex 27.7778 189.05 3
      vertex 26.3 184.8 3
      vertex 27.9013 188.865 3
    endloop
  endfacet
  facet normal 0 0 1
    outer loop
      vertex 27.6794 189.249 3
      vertex 26.3 184.8 3
      vertex 27.7778 189.05 3
    endloop
  endfacet
  facet normal 0 0 1
    outer loop
      vertex 27.6079 189.46 3
      vertex 26.3 184.8 3
      vertex 27.6794 189.249 3
    endloop
  endfacet
  facet normal -1 0 0
    outer loop
      vertex 26.3 193 1.90735e-07
      vertex 26.3 184.8 3
      vertex 26.3 193 3
    endloop
  endfacet
  facet normal -1 0 0
    outer loop
      vertex 26.3 183.4 1.90735e-07
      vertex 26.3 184.8 3
      vertex 26.3 193 1.90735e-07
    endloop
  endfacet
  facet normal -1 0 0
    outer loop
      vertex 26.3 183.4 6.2
      vertex 26.3 184.8 3
      vertex 26.3 183.4 1.90735e-07
    endloop
  endfacet
  facet normal -1 0 0
    outer loop
      vertex 26.3 184.8 3
      vertex 26.3 183.4 6.2
      vertex 26.3 184.8 6.2
    endloop
  endfacet
  facet normal 0 -1 0
    outer loop
      vertex 26.3 183.4 1.90735e-07
      vertex 32 183.4 6.2
      vertex 26.3 183.4 6.2
    endloop
  endfacet
  facet normal 0 -1 -0
    outer loop
      vertex 32 183.4 6.2
      vertex 26.3 183.4 1.90735e-07
      vertex 32 183.4 1.90735e-07
    endloop
  endfacet
  facet normal 0 1 -0
    outer loop
      vertex 32 193 1.90735e-07
      vertex 26.3 193 3
      vertex 32 193 3
    endloop
  endfacet
  facet normal 0 1 0
    outer loop
      vertex 26.3 193 3
      vertex 32 193 1.90735e-07
      vertex 26.3 193 1.90735e-07
    endloop
  endfacet
  facet normal -0 0 1
    outer loop
      vertex 26.3 184.8 6.2
      vertex 32 183.4 6.2
      vertex 32 184.8 6.2
    endloop
  endfacet
  facet normal 0 0 1
    outer loop
      vertex 32 183.4 6.2
      vertex 26.3 184.8 6.2
      vertex 26.3 183.4 6.2
    endloop
  endfacet
  facet normal 0 1 -0
    outer loop
      vertex 32 184.8 3
      vertex 26.3 184.8 6.2
      vertex 32 184.8 6.2
    endloop
  endfacet
  facet normal 0 1 0
    outer loop
      vertex 26.3 184.8 6.2
      vertex 32 184.8 3
      vertex 26.3 184.8 3
    endloop
  endfacet
  facet normal -0.980753 0.195251 0
    outer loop
      vertex 30.8921 189.46 1.90735e-07
      vertex 30.9355 189.678 3
      vertex 30.9355 189.678 1.90735e-07
    endloop
  endfacet
  facet normal -0.980753 0.195251 0
    outer loop
      vertex 30.9355 189.678 3
      vertex 30.8921 189.46 1.90735e-07
      vertex 30.8921 189.46 3
    endloop
  endfacet
  facet normal -0.997874 0.0651764 0
    outer loop
      vertex 30.9355 189.678 1.90735e-07
      vertex 30.95 189.9 3
      vertex 30.95 189.9 1.90735e-07
    endloop
  endfacet
  facet normal -0.997874 0.0651764 0
    outer loop
      vertex 30.95 189.9 3
      vertex 30.9355 189.678 1.90735e-07
      vertex 30.9355 189.678 3
    endloop
  endfacet
  facet normal 0.444696 0.895681 -0
    outer loop
      vertex 28.5994 188.329 1.90735e-07
      vertex 28.4 188.428 3
      vertex 28.5994 188.329 3
    endloop
  endfacet
  facet normal 0.444696 0.895681 0
    outer loop
      vertex 28.4 188.428 3
      vertex 28.5994 188.329 1.90735e-07
      vertex 28.4 188.428 1.90735e-07
    endloop
  endfacet
  facet normal -0.553869 0.832604 0
    outer loop
      vertex 30.2849 188.551 1.90735e-07
      vertex 30.1 188.428 3
      vertex 30.2849 188.551 3
    endloop
  endfacet
  facet normal -0.553869 0.832604 0
    outer loop
      vertex 30.1 188.428 3
      vertex 30.2849 188.551 1.90735e-07
      vertex 30.1 188.428 1.90735e-07
    endloop
  endfacet
  facet normal 0.660284 0.751016 -0
    outer loop
      vertex 28.2151 188.551 1.90735e-07
      vertex 28.0479 188.698 3
      vertex 28.2151 188.551 3
    endloop
  endfacet
  facet normal 0.660284 0.751016 0
    outer loop
      vertex 28.0479 188.698 3
      vertex 28.2151 188.551 1.90735e-07
      vertex 28.0479 188.698 1.90735e-07
    endloop
  endfacet
  facet normal -0.319466 -0.947598 0
    outer loop
      vertex 29.69 191.542 1.90735e-07
      vertex 29.9006 191.471 3
      vertex 29.69 191.542 3
    endloop
  endfacet
  facet normal -0.319466 -0.947598 -0
    outer loop
      vertex 29.9006 191.471 3
      vertex 29.69 191.542 1.90735e-07
      vertex 29.9006 191.471 1.90735e-07
    endloop
  endfacet
  facet normal -0.831704 -0.555219 0
    outer loop
      vertex 30.7222 190.75 1.90735e-07
      vertex 30.5987 190.935 3
      vertex 30.5987 190.935 1.90735e-07
    endloop
  endfacet
  facet normal -0.831704 -0.555219 0
    outer loop
      vertex 30.5987 190.935 3
      vertex 30.7222 190.75 1.90735e-07
      vertex 30.7222 190.75 3
    endloop
  endfacet
  facet normal -0.947101 -0.320937 0
    outer loop
      vertex 30.8921 190.34 1.90735e-07
      vertex 30.8206 190.551 3
      vertex 30.8206 190.551 1.90735e-07
    endloop
  endfacet
  facet normal -0.947101 -0.320937 0
    outer loop
      vertex 30.8206 190.551 3
      vertex 30.8921 190.34 1.90735e-07
      vertex 30.8921 190.34 3
    endloop
  endfacet
  facet normal -0.319466 0.947598 0
    outer loop
      vertex 29.9006 188.329 1.90735e-07
      vertex 29.69 188.258 3
      vertex 29.9006 188.329 3
    endloop
  endfacet
  facet normal -0.319466 0.947598 0
    outer loop
      vertex 29.69 188.258 3
      vertex 29.9006 188.329 1.90735e-07
      vertex 29.69 188.258 1.90735e-07
    endloop
  endfacet
  facet normal -0.193434 0.981113 0
    outer loop
      vertex 29.69 188.258 1.90735e-07
      vertex 29.4719 188.215 3
      vertex 29.69 188.258 3
    endloop
  endfacet
  facet normal -0.193434 0.981113 0
    outer loop
      vertex 29.4719 188.215 3
      vertex 29.69 188.258 1.90735e-07
      vertex 29.4719 188.215 1.90735e-07
    endloop
  endfacet
  facet normal 0.553869 0.832604 -0
    outer loop
      vertex 28.4 188.428 1.90735e-07
      vertex 28.2151 188.551 3
      vertex 28.4 188.428 3
    endloop
  endfacet
  facet normal 0.553869 0.832604 0
    outer loop
      vertex 28.2151 188.551 3
      vertex 28.4 188.428 1.90735e-07
      vertex 28.2151 188.551 1.90735e-07
    endloop
  endfacet
  facet normal -0.8964 -0.443245 0
    outer loop
      vertex 30.8206 190.551 1.90735e-07
      vertex 30.7222 190.75 3
      vertex 30.7222 190.75 1.90735e-07
    endloop
  endfacet
  facet normal -0.8964 -0.443245 0
    outer loop
      vertex 30.7222 190.75 3
      vertex 30.8206 190.551 1.90735e-07
      vertex 30.8206 190.551 3
    endloop
  endfacet
  facet normal -0.660284 0.751016 0
    outer loop
      vertex 30.4521 188.698 1.90735e-07
      vertex 30.2849 188.551 3
      vertex 30.4521 188.698 3
    endloop
  endfacet
  facet normal -0.660284 0.751016 0
    outer loop
      vertex 30.2849 188.551 3
      vertex 30.4521 188.698 1.90735e-07
      vertex 30.2849 188.551 1.90735e-07
    endloop
  endfacet
  facet normal -0.553869 -0.832604 0
    outer loop
      vertex 30.1 191.372 1.90735e-07
      vertex 30.2849 191.249 3
      vertex 30.1 191.372 3
    endloop
  endfacet
  facet normal -0.553869 -0.832604 -0
    outer loop
      vertex 30.2849 191.249 3
      vertex 30.1 191.372 1.90735e-07
      vertex 30.2849 191.249 1.90735e-07
    endloop
  endfacet
  facet normal -0.444696 0.895681 0
    outer loop
      vertex 30.1 188.428 1.90735e-07
      vertex 29.9006 188.329 3
      vertex 30.1 188.428 3
    endloop
  endfacet
  facet normal -0.444696 0.895681 0
    outer loop
      vertex 29.9006 188.329 3
      vertex 30.1 188.428 1.90735e-07
      vertex 29.9006 188.329 1.90735e-07
    endloop
  endfacet
  facet normal 0.660284 -0.751016 0
    outer loop
      vertex 28.0479 191.102 1.90735e-07
      vertex 28.2151 191.249 3
      vertex 28.0479 191.102 3
    endloop
  endfacet
  facet normal 0.660284 -0.751016 0
    outer loop
      vertex 28.2151 191.249 3
      vertex 28.0479 191.102 1.90735e-07
      vertex 28.2151 191.249 1.90735e-07
    endloop
  endfacet
  facet normal 0.751516 -0.659714 0
    outer loop
      vertex 27.9013 190.935 3
      vertex 28.0479 191.102 1.90735e-07
      vertex 28.0479 191.102 3
    endloop
  endfacet
  facet normal 0.751516 -0.659714 0
    outer loop
      vertex 28.0479 191.102 1.90735e-07
      vertex 27.9013 190.935 3
      vertex 27.9013 190.935 1.90735e-07
    endloop
  endfacet
  facet normal 0.831704 -0.555219 0
    outer loop
      vertex 27.7778 190.75 3
      vertex 27.9013 190.935 1.90735e-07
      vertex 27.9013 190.935 3
    endloop
  endfacet
  facet normal 0.831704 -0.555219 0
    outer loop
      vertex 27.9013 190.935 1.90735e-07
      vertex 27.7778 190.75 3
      vertex 27.7778 190.75 1.90735e-07
    endloop
  endfacet
  facet normal -0.831704 0.555219 0
    outer loop
      vertex 30.5987 188.865 1.90735e-07
      vertex 30.7222 189.05 3
      vertex 30.7222 189.05 1.90735e-07
    endloop
  endfacet
  facet normal -0.831704 0.555219 0
    outer loop
      vertex 30.7222 189.05 3
      vertex 30.5987 188.865 1.90735e-07
      vertex 30.5987 188.865 3
    endloop
  endfacet
  facet normal -0.193434 -0.981113 0
    outer loop
      vertex 29.4719 191.585 1.90735e-07
      vertex 29.69 191.542 3
      vertex 29.4719 191.585 3
    endloop
  endfacet
  facet normal -0.193434 -0.981113 -0
    outer loop
      vertex 29.69 191.542 3
      vertex 29.4719 191.585 1.90735e-07
      vertex 29.69 191.542 1.90735e-07
    endloop
  endfacet
  facet normal -0.980753 -0.195251 0
    outer loop
      vertex 30.9355 190.122 1.90735e-07
      vertex 30.8921 190.34 3
      vertex 30.8921 190.34 1.90735e-07
    endloop
  endfacet
  facet normal -0.980753 -0.195251 0
    outer loop
      vertex 30.8921 190.34 3
      vertex 30.9355 190.122 1.90735e-07
      vertex 30.9355 190.122 3
    endloop
  endfacet
  facet normal 0.947101 -0.320937 0
    outer loop
      vertex 27.6079 190.34 3
      vertex 27.6794 190.551 1.90735e-07
      vertex 27.6794 190.551 3
    endloop
  endfacet
  facet normal 0.947101 -0.320937 0
    outer loop
      vertex 27.6794 190.551 1.90735e-07
      vertex 27.6079 190.34 3
      vertex 27.6079 190.34 1.90735e-07
    endloop
  endfacet
  facet normal -0.444696 -0.895681 0
    outer loop
      vertex 29.9006 191.471 1.90735e-07
      vertex 30.1 191.372 3
      vertex 29.9006 191.471 3
    endloop
  endfacet
  facet normal -0.444696 -0.895681 -0
    outer loop
      vertex 30.1 191.372 3
      vertex 29.9006 191.471 1.90735e-07
      vertex 30.1 191.372 1.90735e-07
    endloop
  endfacet
  facet normal -0.0674441 0.997723 0
    outer loop
      vertex 29.4719 188.215 1.90735e-07
      vertex 29.25 188.2 3
      vertex 29.4719 188.215 3
    endloop
  endfacet
  facet normal -0.0674441 0.997723 0
    outer loop
      vertex 29.25 188.2 3
      vertex 29.4719 188.215 1.90735e-07
      vertex 29.25 188.2 1.90735e-07
    endloop
  endfacet
  facet normal 0.319466 0.947598 -0
    outer loop
      vertex 28.81 188.258 1.90735e-07
      vertex 28.5994 188.329 3
      vertex 28.81 188.258 3
    endloop
  endfacet
  facet normal 0.319466 0.947598 0
    outer loop
      vertex 28.5994 188.329 3
      vertex 28.81 188.258 1.90735e-07
      vertex 28.5994 188.329 1.90735e-07
    endloop
  endfacet
  facet normal 0.193434 0.981113 -0
    outer loop
      vertex 29.0281 188.215 1.90735e-07
      vertex 28.81 188.258 3
      vertex 29.0281 188.215 3
    endloop
  endfacet
  facet normal 0.193434 0.981113 0
    outer loop
      vertex 28.81 188.258 3
      vertex 29.0281 188.215 1.90735e-07
      vertex 28.81 188.258 1.90735e-07
    endloop
  endfacet
  facet normal -0.8964 0.443245 0
    outer loop
      vertex 30.7222 189.05 1.90735e-07
      vertex 30.8206 189.249 3
      vertex 30.8206 189.249 1.90735e-07
    endloop
  endfacet
  facet normal -0.8964 0.443245 0
    outer loop
      vertex 30.8206 189.249 3
      vertex 30.7222 189.05 1.90735e-07
      vertex 30.7222 189.05 3
    endloop
  endfacet
  facet normal -0.997874 -0.0651764 0
    outer loop
      vertex 30.95 189.9 1.90735e-07
      vertex 30.9355 190.122 3
      vertex 30.9355 190.122 1.90735e-07
    endloop
  endfacet
  facet normal -0.997874 -0.0651764 0
    outer loop
      vertex 30.9355 190.122 3
      vertex 30.95 189.9 1.90735e-07
      vertex 30.95 189.9 3
    endloop
  endfacet
  facet normal -0.0674441 -0.997723 0
    outer loop
      vertex 29.25 191.6 1.90735e-07
      vertex 29.4719 191.585 3
      vertex 29.25 191.6 3
    endloop
  endfacet
  facet normal -0.0674441 -0.997723 -0
    outer loop
      vertex 29.4719 191.585 3
      vertex 29.25 191.6 1.90735e-07
      vertex 29.4719 191.585 1.90735e-07
    endloop
  endfacet
  facet normal -0.751516 0.659714 0
    outer loop
      vertex 30.4521 188.698 1.90735e-07
      vertex 30.5987 188.865 3
      vertex 30.5987 188.865 1.90735e-07
    endloop
  endfacet
  facet normal -0.751516 0.659714 0
    outer loop
      vertex 30.5987 188.865 3
      vertex 30.4521 188.698 1.90735e-07
      vertex 30.4521 188.698 3
    endloop
  endfacet
  facet normal 0.997874 -0.0651764 0
    outer loop
      vertex 27.55 189.9 3
      vertex 27.5645 190.122 1.90735e-07
      vertex 27.5645 190.122 3
    endloop
  endfacet
  facet normal 0.997874 -0.0651764 0
    outer loop
      vertex 27.5645 190.122 1.90735e-07
      vertex 27.55 189.9 3
      vertex 27.55 189.9 1.90735e-07
    endloop
  endfacet
  facet normal -0.751516 -0.659714 0
    outer loop
      vertex 30.5987 190.935 1.90735e-07
      vertex 30.4521 191.102 3
      vertex 30.4521 191.102 1.90735e-07
    endloop
  endfacet
  facet normal -0.751516 -0.659714 0
    outer loop
      vertex 30.4521 191.102 3
      vertex 30.5987 190.935 1.90735e-07
      vertex 30.5987 190.935 3
    endloop
  endfacet
  facet normal 0.751516 0.659714 0
    outer loop
      vertex 28.0479 188.698 3
      vertex 27.9013 188.865 1.90735e-07
      vertex 27.9013 188.865 3
    endloop
  endfacet
  facet normal 0.751516 0.659714 0
    outer loop
      vertex 27.9013 188.865 1.90735e-07
      vertex 28.0479 188.698 3
      vertex 28.0479 188.698 1.90735e-07
    endloop
  endfacet
  facet normal 0.831704 0.555219 0
    outer loop
      vertex 27.9013 188.865 3
      vertex 27.7778 189.05 1.90735e-07
      vertex 27.7778 189.05 3
    endloop
  endfacet
  facet normal 0.831704 0.555219 0
    outer loop
      vertex 27.7778 189.05 1.90735e-07
      vertex 27.9013 188.865 3
      vertex 27.9013 188.865 1.90735e-07
    endloop
  endfacet
  facet normal 0.0674441 0.997723 -0
    outer loop
      vertex 29.25 188.2 1.90735e-07
      vertex 29.0281 188.215 3
      vertex 29.25 188.2 3
    endloop
  endfacet
  facet normal 0.0674441 0.997723 0
    outer loop
      vertex 29.0281 188.215 3
      vertex 29.25 188.2 1.90735e-07
      vertex 29.0281 188.215 1.90735e-07
    endloop
  endfacet
  facet normal 0.980753 -0.195251 0
    outer loop
      vertex 27.5645 190.122 3
      vertex 27.6079 190.34 1.90735e-07
      vertex 27.6079 190.34 3
    endloop
  endfacet
  facet normal 0.980753 -0.195251 0
    outer loop
      vertex 27.6079 190.34 1.90735e-07
      vertex 27.5645 190.122 3
      vertex 27.5645 190.122 1.90735e-07
    endloop
  endfacet
  facet normal 0.319466 -0.947598 0
    outer loop
      vertex 28.5994 191.471 1.90735e-07
      vertex 28.81 191.542 3
      vertex 28.5994 191.471 3
    endloop
  endfacet
  facet normal 0.319466 -0.947598 0
    outer loop
      vertex 28.81 191.542 3
      vertex 28.5994 191.471 1.90735e-07
      vertex 28.81 191.542 1.90735e-07
    endloop
  endfacet
  facet normal -0.947101 0.320937 0
    outer loop
      vertex 30.8206 189.249 1.90735e-07
      vertex 30.8921 189.46 3
      vertex 30.8921 189.46 1.90735e-07
    endloop
  endfacet
  facet normal -0.947101 0.320937 0
    outer loop
      vertex 30.8921 189.46 3
      vertex 30.8206 189.249 1.90735e-07
      vertex 30.8206 189.249 3
    endloop
  endfacet
  facet normal 0.444696 -0.895681 0
    outer loop
      vertex 28.4 191.372 1.90735e-07
      vertex 28.5994 191.471 3
      vertex 28.4 191.372 3
    endloop
  endfacet
  facet normal 0.444696 -0.895681 0
    outer loop
      vertex 28.5994 191.471 3
      vertex 28.4 191.372 1.90735e-07
      vertex 28.5994 191.471 1.90735e-07
    endloop
  endfacet
  facet normal 0.553869 -0.832604 0
    outer loop
      vertex 28.2151 191.249 1.90735e-07
      vertex 28.4 191.372 3
      vertex 28.2151 191.249 3
    endloop
  endfacet
  facet normal 0.553869 -0.832604 0
    outer loop
      vertex 28.4 191.372 3
      vertex 28.2151 191.249 1.90735e-07
      vertex 28.4 191.372 1.90735e-07
    endloop
  endfacet
  facet normal 0.0674441 -0.997723 0
    outer loop
      vertex 29.0281 191.585 1.90735e-07
      vertex 29.25 191.6 3
      vertex 29.0281 191.585 3
    endloop
  endfacet
  facet normal 0.0674441 -0.997723 0
    outer loop
      vertex 29.25 191.6 3
      vertex 29.0281 191.585 1.90735e-07
      vertex 29.25 191.6 1.90735e-07
    endloop
  endfacet
  facet normal 0.193434 -0.981113 0
    outer loop
      vertex 28.81 191.542 1.90735e-07
      vertex 29.0281 191.585 3
      vertex 28.81 191.542 3
    endloop
  endfacet
  facet normal 0.193434 -0.981113 0
    outer loop
      vertex 29.0281 191.585 3
      vertex 28.81 191.542 1.90735e-07
      vertex 29.0281 191.585 1.90735e-07
    endloop
  endfacet
  facet normal 0.8964 0.443245 0
    outer loop
      vertex 27.7778 189.05 3
      vertex 27.6794 189.249 1.90735e-07
      vertex 27.6794 189.249 3
    endloop
  endfacet
  facet normal 0.8964 0.443245 0
    outer loop
      vertex 27.6794 189.249 1.90735e-07
      vertex 27.7778 189.05 3
      vertex 27.7778 189.05 1.90735e-07
    endloop
  endfacet
  facet normal 0.8964 -0.443245 0
    outer loop
      vertex 27.6794 190.551 3
      vertex 27.7778 190.75 1.90735e-07
      vertex 27.7778 190.75 3
    endloop
  endfacet
  facet normal 0.8964 -0.443245 0
    outer loop
      vertex 27.7778 190.75 1.90735e-07
      vertex 27.6794 190.551 3
      vertex 27.6794 190.551 1.90735e-07
    endloop
  endfacet
  facet normal 0.997874 0.0651764 0
    outer loop
      vertex 27.5645 189.678 3
      vertex 27.55 189.9 1.90735e-07
      vertex 27.55 189.9 3
    endloop
  endfacet
  facet normal 0.997874 0.0651764 0
    outer loop
      vertex 27.55 189.9 1.90735e-07
      vertex 27.5645 189.678 3
      vertex 27.5645 189.678 1.90735e-07
    endloop
  endfacet
  facet normal 0.980753 0.195251 0
    outer loop
      vertex 27.6079 189.46 3
      vertex 27.5645 189.678 1.90735e-07
      vertex 27.5645 189.678 3
    endloop
  endfacet
  facet normal 0.980753 0.195251 0
    outer loop
      vertex 27.5645 189.678 1.90735e-07
      vertex 27.6079 189.46 3
      vertex 27.6079 189.46 1.90735e-07
    endloop
  endfacet
  facet normal 0.947101 0.320937 0
    outer loop
      vertex 27.6794 189.249 3
      vertex 27.6079 189.46 1.90735e-07
      vertex 27.6079 189.46 3
    endloop
  endfacet
  facet normal 0.947101 0.320937 0
    outer loop
      vertex 27.6079 189.46 1.90735e-07
      vertex 27.6794 189.249 3
      vertex 27.6794 189.249 1.90735e-07
    endloop
  endfacet
  facet normal -0.660284 -0.751016 0
    outer loop
      vertex 30.2849 191.249 1.90735e-07
      vertex 30.4521 191.102 3
      vertex 30.2849 191.249 3
    endloop
  endfacet
  facet normal -0.660284 -0.751016 -0
    outer loop
      vertex 30.4521 191.102 3
      vertex 30.2849 191.249 1.90735e-07
      vertex 30.4521 191.102 1.90735e-07
    endloop
  endfacet
  facet normal -1 0 0
    outer loop
      vertex 106 193 1.90735e-07
      vertex 106 184.8 3
      vertex 106 193 3
    endloop
  endfacet
  facet normal -1 0 0
    outer loop
      vertex 106 183.4 1.90735e-07
      vertex 106 184.8 3
      vertex 106 193 1.90735e-07
    endloop
  endfacet
  facet normal -1 0 0
    outer loop
      vertex 106 183.4 6.2
      vertex 106 184.8 3
      vertex 106 183.4 1.90735e-07
    endloop
  endfacet
  facet normal -1 0 0
    outer loop
      vertex 106 184.8 3
      vertex 106 183.4 6.2
      vertex 106 184.8 6.2
    endloop
  endfacet
  facet normal 0 0 -1
    outer loop
      vertex 110.435 189.678 1.90735e-07
      vertex 111.7 193 1.90735e-07
      vertex 111.7 183.4 1.90735e-07
    endloop
  endfacet
  facet normal 0 0 -1
    outer loop
      vertex 111.7 193 1.90735e-07
      vertex 110.435 189.678 1.90735e-07
      vertex 110.45 189.9 1.90735e-07
    endloop
  endfacet
  facet normal 0 0 -1
    outer loop
      vertex 111.7 183.4 1.90735e-07
      vertex 110.392 189.46 1.90735e-07
      vertex 110.435 189.678 1.90735e-07
    endloop
  endfacet
  facet normal 0 0 -1
    outer loop
      vertex 111.7 183.4 1.90735e-07
      vertex 110.321 189.249 1.90735e-07
      vertex 110.392 189.46 1.90735e-07
    endloop
  endfacet
  facet normal 0 0 -1
    outer loop
      vertex 111.7 183.4 1.90735e-07
      vertex 110.222 189.05 1.90735e-07
      vertex 110.321 189.249 1.90735e-07
    endloop
  endfacet
  facet normal 0 0 -1
    outer loop
      vertex 111.7 183.4 1.90735e-07
      vertex 110.099 188.865 1.90735e-07
      vertex 110.222 189.05 1.90735e-07
    endloop
  endfacet
  facet normal 0 0 -1
    outer loop
      vertex 111.7 183.4 1.90735e-07
      vertex 109.952 188.698 1.90735e-07
      vertex 110.099 188.865 1.90735e-07
    endloop
  endfacet
  facet normal 0 0 -1
    outer loop
      vertex 111.7 183.4 1.90735e-07
      vertex 109.785 188.551 1.90735e-07
      vertex 109.952 188.698 1.90735e-07
    endloop
  endfacet
  facet normal 0 0 -1
    outer loop
      vertex 111.7 183.4 1.90735e-07
      vertex 109.6 188.428 1.90735e-07
      vertex 109.785 188.551 1.90735e-07
    endloop
  endfacet
  facet normal 0 0 -1
    outer loop
      vertex 111.7 183.4 1.90735e-07
      vertex 109.401 188.329 1.90735e-07
      vertex 109.6 188.428 1.90735e-07
    endloop
  endfacet
  facet normal 0 0 -1
    outer loop
      vertex 111.7 183.4 1.90735e-07
      vertex 109.19 188.258 1.90735e-07
      vertex 109.401 188.329 1.90735e-07
    endloop
  endfacet
  facet normal 0 0 -1
    outer loop
      vertex 111.7 183.4 1.90735e-07
      vertex 108.972 188.215 1.90735e-07
      vertex 109.19 188.258 1.90735e-07
    endloop
  endfacet
  facet normal 0 0 -1
    outer loop
      vertex 111.7 183.4 1.90735e-07
      vertex 108.75 188.2 1.90735e-07
      vertex 108.972 188.215 1.90735e-07
    endloop
  endfacet
  facet normal 0 0 -1
    outer loop
      vertex 106 183.4 1.90735e-07
      vertex 108.75 188.2 1.90735e-07
      vertex 111.7 183.4 1.90735e-07
    endloop
  endfacet
  facet normal -0 0 -1
    outer loop
      vertex 108.75 188.2 1.90735e-07
      vertex 106 183.4 1.90735e-07
      vertex 108.528 188.215 1.90735e-07
    endloop
  endfacet
  facet normal -0 0 -1
    outer loop
      vertex 108.528 188.215 1.90735e-07
      vertex 106 183.4 1.90735e-07
      vertex 108.31 188.258 1.90735e-07
    endloop
  endfacet
  facet normal -0 0 -1
    outer loop
      vertex 108.31 188.258 1.90735e-07
      vertex 106 183.4 1.90735e-07
      vertex 108.099 188.329 1.90735e-07
    endloop
  endfacet
  facet normal -0 0 -1
    outer loop
      vertex 108.099 188.329 1.90735e-07
      vertex 106 183.4 1.90735e-07
      vertex 107.9 188.428 1.90735e-07
    endloop
  endfacet
  facet normal -0 0 -1
    outer loop
      vertex 107.9 188.428 1.90735e-07
      vertex 106 183.4 1.90735e-07
      vertex 107.715 188.551 1.90735e-07
    endloop
  endfacet
  facet normal -0 0 -1
    outer loop
      vertex 107.715 188.551 1.90735e-07
      vertex 106 183.4 1.90735e-07
      vertex 107.548 188.698 1.90735e-07
    endloop
  endfacet
  facet normal 0 0 -1
    outer loop
      vertex 106 193 1.90735e-07
      vertex 107.065 189.678 1.90735e-07
      vertex 106 183.4 1.90735e-07
    endloop
  endfacet
  facet normal -0 0 -1
    outer loop
      vertex 107.108 189.46 1.90735e-07
      vertex 106 183.4 1.90735e-07
      vertex 107.065 189.678 1.90735e-07
    endloop
  endfacet
  facet normal -0 0 -1
    outer loop
      vertex 107.179 189.249 1.90735e-07
      vertex 106 183.4 1.90735e-07
      vertex 107.108 189.46 1.90735e-07
    endloop
  endfacet
  facet normal -0 0 -1
    outer loop
      vertex 107.278 189.05 1.90735e-07
      vertex 106 183.4 1.90735e-07
      vertex 107.179 189.249 1.90735e-07
    endloop
  endfacet
  facet normal -0 0 -1
    outer loop
      vertex 107.401 188.865 1.90735e-07
      vertex 106 183.4 1.90735e-07
      vertex 107.278 189.05 1.90735e-07
    endloop
  endfacet
  facet normal -0 0 -1
    outer loop
      vertex 107.548 188.698 1.90735e-07
      vertex 106 183.4 1.90735e-07
      vertex 107.401 188.865 1.90735e-07
    endloop
  endfacet
  facet normal 0 0 -1
    outer loop
      vertex 110.435 190.122 1.90735e-07
      vertex 111.7 193 1.90735e-07
      vertex 110.45 189.9 1.90735e-07
    endloop
  endfacet
  facet normal 0 0 -1
    outer loop
      vertex 110.392 190.34 1.90735e-07
      vertex 111.7 193 1.90735e-07
      vertex 110.435 190.122 1.90735e-07
    endloop
  endfacet
  facet normal 0 0 -1
    outer loop
      vertex 110.321 190.551 1.90735e-07
      vertex 111.7 193 1.90735e-07
      vertex 110.392 190.34 1.90735e-07
    endloop
  endfacet
  facet normal 0 0 -1
    outer loop
      vertex 110.222 190.75 1.90735e-07
      vertex 111.7 193 1.90735e-07
      vertex 110.321 190.551 1.90735e-07
    endloop
  endfacet
  facet normal 0 0 -1
    outer loop
      vertex 110.099 190.935 1.90735e-07
      vertex 111.7 193 1.90735e-07
      vertex 110.222 190.75 1.90735e-07
    endloop
  endfacet
  facet normal 0 0 -1
    outer loop
      vertex 109.952 191.102 1.90735e-07
      vertex 111.7 193 1.90735e-07
      vertex 110.099 190.935 1.90735e-07
    endloop
  endfacet
  facet normal 0 0 -1
    outer loop
      vertex 109.785 191.249 1.90735e-07
      vertex 111.7 193 1.90735e-07
      vertex 109.952 191.102 1.90735e-07
    endloop
  endfacet
  facet normal 0 0 -1
    outer loop
      vertex 109.6 191.372 1.90735e-07
      vertex 111.7 193 1.90735e-07
      vertex 109.785 191.249 1.90735e-07
    endloop
  endfacet
  facet normal 0 0 -1
    outer loop
      vertex 109.401 191.471 1.90735e-07
      vertex 111.7 193 1.90735e-07
      vertex 109.6 191.372 1.90735e-07
    endloop
  endfacet
  facet normal 0 0 -1
    outer loop
      vertex 109.19 191.542 1.90735e-07
      vertex 111.7 193 1.90735e-07
      vertex 109.401 191.471 1.90735e-07
    endloop
  endfacet
  facet normal 0 0 -1
    outer loop
      vertex 108.972 191.585 1.90735e-07
      vertex 111.7 193 1.90735e-07
      vertex 109.19 191.542 1.90735e-07
    endloop
  endfacet
  facet normal 0 0 -1
    outer loop
      vertex 108.75 191.6 1.90735e-07
      vertex 111.7 193 1.90735e-07
      vertex 108.972 191.585 1.90735e-07
    endloop
  endfacet
  facet normal 0 0 -1
    outer loop
      vertex 106 193 1.90735e-07
      vertex 108.75 191.6 1.90735e-07
      vertex 108.528 191.585 1.90735e-07
    endloop
  endfacet
  facet normal 0 0 -1
    outer loop
      vertex 106 193 1.90735e-07
      vertex 108.528 191.585 1.90735e-07
      vertex 108.31 191.542 1.90735e-07
    endloop
  endfacet
  facet normal 0 0 -1
    outer loop
      vertex 106 193 1.90735e-07
      vertex 108.31 191.542 1.90735e-07
      vertex 108.099 191.471 1.90735e-07
    endloop
  endfacet
  facet normal 0 0 -1
    outer loop
      vertex 107.065 189.678 1.90735e-07
      vertex 106 193 1.90735e-07
      vertex 107.05 189.9 1.90735e-07
    endloop
  endfacet
  facet normal 0 0 -1
    outer loop
      vertex 108.75 191.6 1.90735e-07
      vertex 106 193 1.90735e-07
      vertex 111.7 193 1.90735e-07
    endloop
  endfacet
  facet normal 0 0 -1
    outer loop
      vertex 107.9 191.372 1.90735e-07
      vertex 106 193 1.90735e-07
      vertex 108.099 191.471 1.90735e-07
    endloop
  endfacet
  facet normal 0 0 -1
    outer loop
      vertex 107.715 191.249 1.90735e-07
      vertex 106 193 1.90735e-07
      vertex 107.9 191.372 1.90735e-07
    endloop
  endfacet
  facet normal 0 0 -1
    outer loop
      vertex 107.548 191.102 1.90735e-07
      vertex 106 193 1.90735e-07
      vertex 107.715 191.249 1.90735e-07
    endloop
  endfacet
  facet normal 0 0 -1
    outer loop
      vertex 107.401 190.935 1.90735e-07
      vertex 106 193 1.90735e-07
      vertex 107.548 191.102 1.90735e-07
    endloop
  endfacet
  facet normal 0 0 -1
    outer loop
      vertex 107.278 190.75 1.90735e-07
      vertex 106 193 1.90735e-07
      vertex 107.401 190.935 1.90735e-07
    endloop
  endfacet
  facet normal 0 0 -1
    outer loop
      vertex 107.179 190.551 1.90735e-07
      vertex 106 193 1.90735e-07
      vertex 107.278 190.75 1.90735e-07
    endloop
  endfacet
  facet normal 0 0 -1
    outer loop
      vertex 107.108 190.34 1.90735e-07
      vertex 106 193 1.90735e-07
      vertex 107.179 190.551 1.90735e-07
    endloop
  endfacet
  facet normal 0 0 -1
    outer loop
      vertex 107.065 190.122 1.90735e-07
      vertex 106 193 1.90735e-07
      vertex 107.108 190.34 1.90735e-07
    endloop
  endfacet
  facet normal 0 0 -1
    outer loop
      vertex 107.05 189.9 1.90735e-07
      vertex 106 193 1.90735e-07
      vertex 107.065 190.122 1.90735e-07
    endloop
  endfacet
  facet normal 0 0 1
    outer loop
      vertex 110.435 189.678 3
      vertex 111.7 193 3
      vertex 110.45 189.9 3
    endloop
  endfacet
  facet normal 0 0 1
    outer loop
      vertex 111.7 193 3
      vertex 110.435 190.122 3
      vertex 110.45 189.9 3
    endloop
  endfacet
  facet normal 0 0 1
    outer loop
      vertex 111.7 193 3
      vertex 110.392 190.34 3
      vertex 110.435 190.122 3
    endloop
  endfacet
  facet normal 0 0 1
    outer loop
      vertex 111.7 193 3
      vertex 110.321 190.551 3
      vertex 110.392 190.34 3
    endloop
  endfacet
  facet normal 0 0 1
    outer loop
      vertex 111.7 193 3
      vertex 110.222 190.75 3
      vertex 110.321 190.551 3
    endloop
  endfacet
  facet normal 0 0 1
    outer loop
      vertex 111.7 193 3
      vertex 110.099 190.935 3
      vertex 110.222 190.75 3
    endloop
  endfacet
  facet normal 0 0 1
    outer loop
      vertex 111.7 193 3
      vertex 109.952 191.102 3
      vertex 110.099 190.935 3
    endloop
  endfacet
  facet normal 0 0 1
    outer loop
      vertex 111.7 193 3
      vertex 109.785 191.249 3
      vertex 109.952 191.102 3
    endloop
  endfacet
  facet normal 0 0 1
    outer loop
      vertex 111.7 193 3
      vertex 109.6 191.372 3
      vertex 109.785 191.249 3
    endloop
  endfacet
  facet normal 0 0 1
    outer loop
      vertex 111.7 193 3
      vertex 109.401 191.471 3
      vertex 109.6 191.372 3
    endloop
  endfacet
  facet normal 0 0 1
    outer loop
      vertex 111.7 193 3
      vertex 109.19 191.542 3
      vertex 109.401 191.471 3
    endloop
  endfacet
  facet normal 0 0 1
    outer loop
      vertex 111.7 193 3
      vertex 108.972 191.585 3
      vertex 109.19 191.542 3
    endloop
  endfacet
  facet normal 0 0 1
    outer loop
      vertex 111.7 193 3
      vertex 108.75 191.6 3
      vertex 108.972 191.585 3
    endloop
  endfacet
  facet normal -0 0 1
    outer loop
      vertex 106 193 3
      vertex 108.75 191.6 3
      vertex 111.7 193 3
    endloop
  endfacet
  facet normal 0 0 1
    outer loop
      vertex 108.75 191.6 3
      vertex 106 193 3
      vertex 108.528 191.585 3
    endloop
  endfacet
  facet normal 0 0 1
    outer loop
      vertex 108.528 191.585 3
      vertex 106 193 3
      vertex 108.31 191.542 3
    endloop
  endfacet
  facet normal 0 0 1
    outer loop
      vertex 107.065 190.122 3
      vertex 106 193 3
      vertex 107.05 189.9 3
    endloop
  endfacet
  facet normal 0 0 1
    outer loop
      vertex 107.108 190.34 3
      vertex 106 193 3
      vertex 107.065 190.122 3
    endloop
  endfacet
  facet normal 0 0 1
    outer loop
      vertex 107.179 190.551 3
      vertex 106 193 3
      vertex 107.108 190.34 3
    endloop
  endfacet
  facet normal 0 0 1
    outer loop
      vertex 107.278 190.75 3
      vertex 106 193 3
      vertex 107.179 190.551 3
    endloop
  endfacet
  facet normal 0 0 1
    outer loop
      vertex 107.401 190.935 3
      vertex 106 193 3
      vertex 107.278 190.75 3
    endloop
  endfacet
  facet normal 0 0 1
    outer loop
      vertex 107.548 191.102 3
      vertex 106 193 3
      vertex 107.401 190.935 3
    endloop
  endfacet
  facet normal 0 0 1
    outer loop
      vertex 107.715 191.249 3
      vertex 106 193 3
      vertex 107.548 191.102 3
    endloop
  endfacet
  facet normal 0 0 1
    outer loop
      vertex 107.9 191.372 3
      vertex 106 193 3
      vertex 107.715 191.249 3
    endloop
  endfacet
  facet normal 0 0 1
    outer loop
      vertex 108.099 191.471 3
      vertex 106 193 3
      vertex 107.9 191.372 3
    endloop
  endfacet
  facet normal 0 0 1
    outer loop
      vertex 108.31 191.542 3
      vertex 106 193 3
      vertex 108.099 191.471 3
    endloop
  endfacet
  facet normal 0 0 1
    outer loop
      vertex 111.7 193 3
      vertex 110.435 189.678 3
      vertex 111.7 184.8 3
    endloop
  endfacet
  facet normal -0 0 1
    outer loop
      vertex 110.392 189.46 3
      vertex 111.7 184.8 3
      vertex 110.435 189.678 3
    endloop
  endfacet
  facet normal -0 0 1
    outer loop
      vertex 110.321 189.249 3
      vertex 111.7 184.8 3
      vertex 110.392 189.46 3
    endloop
  endfacet
  facet normal -0 0 1
    outer loop
      vertex 110.222 189.05 3
      vertex 111.7 184.8 3
      vertex 110.321 189.249 3
    endloop
  endfacet
  facet normal -0 0 1
    outer loop
      vertex 110.099 188.865 3
      vertex 111.7 184.8 3
      vertex 110.222 189.05 3
    endloop
  endfacet
  facet normal -0 0 1
    outer loop
      vertex 109.952 188.698 3
      vertex 111.7 184.8 3
      vertex 110.099 188.865 3
    endloop
  endfacet
  facet normal -0 0 1
    outer loop
      vertex 109.785 188.551 3
      vertex 111.7 184.8 3
      vertex 109.952 188.698 3
    endloop
  endfacet
  facet normal -0 0 1
    outer loop
      vertex 109.6 188.428 3
      vertex 111.7 184.8 3
      vertex 109.785 188.551 3
    endloop
  endfacet
  facet normal -0 0 1
    outer loop
      vertex 109.401 188.329 3
      vertex 111.7 184.8 3
      vertex 109.6 188.428 3
    endloop
  endfacet
  facet normal -0 0 1
    outer loop
      vertex 109.19 188.258 3
      vertex 111.7 184.8 3
      vertex 109.401 188.329 3
    endloop
  endfacet
  facet normal -0 0 1
    outer loop
      vertex 108.972 188.215 3
      vertex 111.7 184.8 3
      vertex 109.19 188.258 3
    endloop
  endfacet
  facet normal -0 0 1
    outer loop
      vertex 108.75 188.2 3
      vertex 111.7 184.8 3
      vertex 108.972 188.215 3
    endloop
  endfacet
  facet normal 0 0 1
    outer loop
      vertex 106 184.8 3
      vertex 108.75 188.2 3
      vertex 108.528 188.215 3
    endloop
  endfacet
  facet normal 0 0 1
    outer loop
      vertex 106 184.8 3
      vertex 108.528 188.215 3
      vertex 108.31 188.258 3
    endloop
  endfacet
  facet normal 0 0 1
    outer loop
      vertex 106 184.8 3
      vertex 108.31 188.258 3
      vertex 108.099 188.329 3
    endloop
  endfacet
  facet normal 0 0 1
    outer loop
      vertex 106 184.8 3
      vertex 108.099 188.329 3
      vertex 107.9 188.428 3
    endloop
  endfacet
  facet normal 0 0 1
    outer loop
      vertex 106 184.8 3
      vertex 107.9 188.428 3
      vertex 107.715 188.551 3
    endloop
  endfacet
  facet normal 0 0 1
    outer loop
      vertex 106 184.8 3
      vertex 107.715 188.551 3
      vertex 107.548 188.698 3
    endloop
  endfacet
  facet normal 0 0 1
    outer loop
      vertex 106 193 3
      vertex 107.065 189.678 3
      vertex 107.05 189.9 3
    endloop
  endfacet
  facet normal 0 0 1
    outer loop
      vertex 106 184.8 3
      vertex 107.065 189.678 3
      vertex 106 193 3
    endloop
  endfacet
  facet normal 0 0 1
    outer loop
      vertex 108.75 188.2 3
      vertex 106 184.8 3
      vertex 111.7 184.8 3
    endloop
  endfacet
  facet normal 0 0 1
    outer loop
      vertex 107.401 188.865 3
      vertex 106 184.8 3
      vertex 107.548 188.698 3
    endloop
  endfacet
  facet normal 0 0 1
    outer loop
      vertex 107.278 189.05 3
      vertex 106 184.8 3
      vertex 107.401 188.865 3
    endloop
  endfacet
  facet normal 0 0 1
    outer loop
      vertex 107.179 189.249 3
      vertex 106 184.8 3
      vertex 107.278 189.05 3
    endloop
  endfacet
  facet normal 0 0 1
    outer loop
      vertex 107.108 189.46 3
      vertex 106 184.8 3
      vertex 107.179 189.249 3
    endloop
  endfacet
  facet normal 0 0 1
    outer loop
      vertex 107.065 189.678 3
      vertex 106 184.8 3
      vertex 107.108 189.46 3
    endloop
  endfacet
  facet normal 1 -0 0
    outer loop
      vertex 111.7 184.8 3
      vertex 111.7 193 1.90735e-07
      vertex 111.7 193 3
    endloop
  endfacet
  facet normal 1 0 0
    outer loop
      vertex 111.7 184.8 3
      vertex 111.7 183.4 1.90735e-07
      vertex 111.7 193 1.90735e-07
    endloop
  endfacet
  facet normal 1 0 0
    outer loop
      vertex 111.7 183.4 1.90735e-07
      vertex 111.7 184.8 3
      vertex 111.7 183.4 6.2
    endloop
  endfacet
  facet normal 1 0 0
    outer loop
      vertex 111.7 184.8 6.2
      vertex 111.7 183.4 6.2
      vertex 111.7 184.8 3
    endloop
  endfacet
  facet normal 0 -1 0
    outer loop
      vertex 106 183.4 1.90735e-07
      vertex 111.7 183.4 6.2
      vertex 106 183.4 6.2
    endloop
  endfacet
  facet normal 0 -1 -0
    outer loop
      vertex 111.7 183.4 6.2
      vertex 106 183.4 1.90735e-07
      vertex 111.7 183.4 1.90735e-07
    endloop
  endfacet
  facet normal 0 1 -0
    outer loop
      vertex 111.7 193 1.90735e-07
      vertex 106 193 3
      vertex 111.7 193 3
    endloop
  endfacet
  facet normal 0 1 0
    outer loop
      vertex 106 193 3
      vertex 111.7 193 1.90735e-07
      vertex 106 193 1.90735e-07
    endloop
  endfacet
  facet normal -0 0 1
    outer loop
      vertex 106 184.8 6.2
      vertex 111.7 183.4 6.2
      vertex 111.7 184.8 6.2
    endloop
  endfacet
  facet normal 0 0 1
    outer loop
      vertex 111.7 183.4 6.2
      vertex 106 184.8 6.2
      vertex 106 183.4 6.2
    endloop
  endfacet
  facet normal 0 1 -0
    outer loop
      vertex 111.7 184.8 3
      vertex 106 184.8 6.2
      vertex 111.7 184.8 6.2
    endloop
  endfacet
  facet normal 0 1 0
    outer loop
      vertex 106 184.8 6.2
      vertex 111.7 184.8 3
      vertex 106 184.8 3
    endloop
  endfacet
  facet normal 0.981097 0.193519 0
    outer loop
      vertex 107.108 189.46 3
      vertex 107.065 189.678 1.90735e-07
      vertex 107.065 189.678 3
    endloop
  endfacet
  facet normal 0.981097 0.193519 0
    outer loop
      vertex 107.065 189.678 1.90735e-07
      vertex 107.108 189.46 3
      vertex 107.108 189.46 1.90735e-07
    endloop
  endfacet
  facet normal 0.997725 0.0674139 0
    outer loop
      vertex 107.065 189.678 3
      vertex 107.05 189.9 1.90735e-07
      vertex 107.05 189.9 3
    endloop
  endfacet
  facet normal 0.997725 0.0674139 0
    outer loop
      vertex 107.05 189.9 1.90735e-07
      vertex 107.065 189.678 3
      vertex 107.065 189.678 1.90735e-07
    endloop
  endfacet
  facet normal -0.445413 0.895325 0
    outer loop
      vertex 109.6 188.428 1.90735e-07
      vertex 109.401 188.329 3
      vertex 109.6 188.428 3
    endloop
  endfacet
  facet normal -0.445413 0.895325 0
    outer loop
      vertex 109.401 188.329 3
      vertex 109.6 188.428 1.90735e-07
      vertex 109.401 188.329 1.90735e-07
    endloop
  endfacet
  facet normal 0.553661 0.832742 -0
    outer loop
      vertex 107.9 188.428 1.90735e-07
      vertex 107.715 188.551 3
      vertex 107.9 188.428 3
    endloop
  endfacet
  facet normal 0.553661 0.832742 0
    outer loop
      vertex 107.715 188.551 3
      vertex 107.9 188.428 1.90735e-07
      vertex 107.715 188.551 1.90735e-07
    endloop
  endfacet
  facet normal -0.660729 0.750624 0
    outer loop
      vertex 109.952 188.698 1.90735e-07
      vertex 109.785 188.551 3
      vertex 109.952 188.698 3
    endloop
  endfacet
  facet normal -0.660729 0.750624 0
    outer loop
      vertex 109.785 188.551 3
      vertex 109.952 188.698 1.90735e-07
      vertex 109.785 188.551 1.90735e-07
    endloop
  endfacet
  facet normal 0.318922 -0.947781 0
    outer loop
      vertex 108.099 191.471 1.90735e-07
      vertex 108.31 191.542 3
      vertex 108.099 191.471 3
    endloop
  endfacet
  facet normal 0.318922 -0.947781 0
    outer loop
      vertex 108.31 191.542 3
      vertex 108.099 191.471 1.90735e-07
      vertex 108.31 191.542 1.90735e-07
    endloop
  endfacet
  facet normal 0.832742 -0.553661 0
    outer loop
      vertex 107.278 190.75 3
      vertex 107.401 190.935 1.90735e-07
      vertex 107.401 190.935 3
    endloop
  endfacet
  facet normal 0.832742 -0.553661 0
    outer loop
      vertex 107.401 190.935 1.90735e-07
      vertex 107.278 190.75 3
      vertex 107.278 190.75 1.90735e-07
    endloop
  endfacet
  facet normal 0.947781 -0.318922 0
    outer loop
      vertex 107.108 190.34 3
      vertex 107.179 190.551 1.90735e-07
      vertex 107.179 190.551 3
    endloop
  endfacet
  facet normal 0.947781 -0.318922 0
    outer loop
      vertex 107.179 190.551 1.90735e-07
      vertex 107.108 190.34 3
      vertex 107.108 190.34 1.90735e-07
    endloop
  endfacet
  facet normal 0.318922 0.947781 -0
    outer loop
      vertex 108.31 188.258 1.90735e-07
      vertex 108.099 188.329 3
      vertex 108.31 188.258 3
    endloop
  endfacet
  facet normal 0.318922 0.947781 0
    outer loop
      vertex 108.099 188.329 3
      vertex 108.31 188.258 1.90735e-07
      vertex 108.099 188.329 1.90735e-07
    endloop
  endfacet
  facet normal 0.193519 0.981097 -0
    outer loop
      vertex 108.528 188.215 1.90735e-07
      vertex 108.31 188.258 3
      vertex 108.528 188.215 3
    endloop
  endfacet
  facet normal 0.193519 0.981097 0
    outer loop
      vertex 108.31 188.258 3
      vertex 108.528 188.215 1.90735e-07
      vertex 108.31 188.258 1.90735e-07
    endloop
  endfacet
  facet normal -0.553661 0.832742 0
    outer loop
      vertex 109.785 188.551 1.90735e-07
      vertex 109.6 188.428 3
      vertex 109.785 188.551 3
    endloop
  endfacet
  facet normal -0.553661 0.832742 0
    outer loop
      vertex 109.6 188.428 3
      vertex 109.785 188.551 1.90735e-07
      vertex 109.6 188.428 1.90735e-07
    endloop
  endfacet
  facet normal 0.895325 -0.445413 0
    outer loop
      vertex 107.179 190.551 3
      vertex 107.278 190.75 1.90735e-07
      vertex 107.278 190.75 3
    endloop
  endfacet
  facet normal 0.895325 -0.445413 0
    outer loop
      vertex 107.278 190.75 1.90735e-07
      vertex 107.179 190.551 3
      vertex 107.179 190.551 1.90735e-07
    endloop
  endfacet
  facet normal 0.660729 0.750624 -0
    outer loop
      vertex 107.715 188.551 1.90735e-07
      vertex 107.548 188.698 3
      vertex 107.715 188.551 3
    endloop
  endfacet
  facet normal 0.660729 0.750624 0
    outer loop
      vertex 107.548 188.698 3
      vertex 107.715 188.551 1.90735e-07
      vertex 107.548 188.698 1.90735e-07
    endloop
  endfacet
  facet normal 0.553661 -0.832742 0
    outer loop
      vertex 107.715 191.249 1.90735e-07
      vertex 107.9 191.372 3
      vertex 107.715 191.249 3
    endloop
  endfacet
  facet normal 0.553661 -0.832742 0
    outer loop
      vertex 107.9 191.372 3
      vertex 107.715 191.249 1.90735e-07
      vertex 107.9 191.372 1.90735e-07
    endloop
  endfacet
  facet normal 0.445413 0.895325 -0
    outer loop
      vertex 108.099 188.329 1.90735e-07
      vertex 107.9 188.428 3
      vertex 108.099 188.329 3
    endloop
  endfacet
  facet normal 0.445413 0.895325 0
    outer loop
      vertex 107.9 188.428 3
      vertex 108.099 188.329 1.90735e-07
      vertex 107.9 188.428 1.90735e-07
    endloop
  endfacet
  facet normal -0.660729 -0.750624 0
    outer loop
      vertex 109.785 191.249 1.90735e-07
      vertex 109.952 191.102 3
      vertex 109.785 191.249 3
    endloop
  endfacet
  facet normal -0.660729 -0.750624 -0
    outer loop
      vertex 109.952 191.102 3
      vertex 109.785 191.249 1.90735e-07
      vertex 109.952 191.102 1.90735e-07
    endloop
  endfacet
  facet normal -0.750624 -0.660729 0
    outer loop
      vertex 110.099 190.935 1.90735e-07
      vertex 109.952 191.102 3
      vertex 109.952 191.102 1.90735e-07
    endloop
  endfacet
  facet normal -0.750624 -0.660729 0
    outer loop
      vertex 109.952 191.102 3
      vertex 110.099 190.935 1.90735e-07
      vertex 110.099 190.935 3
    endloop
  endfacet
  facet normal -0.832742 -0.553661 0
    outer loop
      vertex 110.222 190.75 1.90735e-07
      vertex 110.099 190.935 3
      vertex 110.099 190.935 1.90735e-07
    endloop
  endfacet
  facet normal -0.832742 -0.553661 0
    outer loop
      vertex 110.099 190.935 3
      vertex 110.222 190.75 1.90735e-07
      vertex 110.222 190.75 3
    endloop
  endfacet
  facet normal 0.832742 0.553661 0
    outer loop
      vertex 107.401 188.865 3
      vertex 107.278 189.05 1.90735e-07
      vertex 107.278 189.05 3
    endloop
  endfacet
  facet normal 0.832742 0.553661 0
    outer loop
      vertex 107.278 189.05 1.90735e-07
      vertex 107.401 188.865 3
      vertex 107.401 188.865 1.90735e-07
    endloop
  endfacet
  facet normal 0.193519 -0.981097 0
    outer loop
      vertex 108.31 191.542 1.90735e-07
      vertex 108.528 191.585 3
      vertex 108.31 191.542 3
    endloop
  endfacet
  facet normal 0.193519 -0.981097 0
    outer loop
      vertex 108.528 191.585 3
      vertex 108.31 191.542 1.90735e-07
      vertex 108.528 191.585 1.90735e-07
    endloop
  endfacet
  facet normal 0.981097 -0.193519 0
    outer loop
      vertex 107.065 190.122 3
      vertex 107.108 190.34 1.90735e-07
      vertex 107.108 190.34 3
    endloop
  endfacet
  facet normal 0.981097 -0.193519 0
    outer loop
      vertex 107.108 190.34 1.90735e-07
      vertex 107.065 190.122 3
      vertex 107.065 190.122 1.90735e-07
    endloop
  endfacet
  facet normal -0.947781 -0.318922 0
    outer loop
      vertex 110.392 190.34 1.90735e-07
      vertex 110.321 190.551 3
      vertex 110.321 190.551 1.90735e-07
    endloop
  endfacet
  facet normal -0.947781 -0.318922 0
    outer loop
      vertex 110.321 190.551 3
      vertex 110.392 190.34 1.90735e-07
      vertex 110.392 190.34 3
    endloop
  endfacet
  facet normal 0.445413 -0.895325 0
    outer loop
      vertex 107.9 191.372 1.90735e-07
      vertex 108.099 191.471 3
      vertex 107.9 191.372 3
    endloop
  endfacet
  facet normal 0.445413 -0.895325 0
    outer loop
      vertex 108.099 191.471 3
      vertex 107.9 191.372 1.90735e-07
      vertex 108.099 191.471 1.90735e-07
    endloop
  endfacet
  facet normal 0.0674139 0.997725 -0
    outer loop
      vertex 108.75 188.2 1.90735e-07
      vertex 108.528 188.215 3
      vertex 108.75 188.2 3
    endloop
  endfacet
  facet normal 0.0674139 0.997725 0
    outer loop
      vertex 108.528 188.215 3
      vertex 108.75 188.2 1.90735e-07
      vertex 108.528 188.215 1.90735e-07
    endloop
  endfacet
  facet normal -0.318922 0.947781 0
    outer loop
      vertex 109.401 188.329 1.90735e-07
      vertex 109.19 188.258 3
      vertex 109.401 188.329 3
    endloop
  endfacet
  facet normal -0.318922 0.947781 0
    outer loop
      vertex 109.19 188.258 3
      vertex 109.401 188.329 1.90735e-07
      vertex 109.19 188.258 1.90735e-07
    endloop
  endfacet
  facet normal -0.193519 0.981097 0
    outer loop
      vertex 109.19 188.258 1.90735e-07
      vertex 108.972 188.215 3
      vertex 109.19 188.258 3
    endloop
  endfacet
  facet normal -0.193519 0.981097 0
    outer loop
      vertex 108.972 188.215 3
      vertex 109.19 188.258 1.90735e-07
      vertex 108.972 188.215 1.90735e-07
    endloop
  endfacet
  facet normal 0.895325 0.445413 0
    outer loop
      vertex 107.278 189.05 3
      vertex 107.179 189.249 1.90735e-07
      vertex 107.179 189.249 3
    endloop
  endfacet
  facet normal 0.895325 0.445413 0
    outer loop
      vertex 107.179 189.249 1.90735e-07
      vertex 107.278 189.05 3
      vertex 107.278 189.05 1.90735e-07
    endloop
  endfacet
  facet normal 0.997725 -0.0674139 0
    outer loop
      vertex 107.05 189.9 3
      vertex 107.065 190.122 1.90735e-07
      vertex 107.065 190.122 3
    endloop
  endfacet
  facet normal 0.997725 -0.0674139 0
    outer loop
      vertex 107.065 190.122 1.90735e-07
      vertex 107.05 189.9 3
      vertex 107.05 189.9 1.90735e-07
    endloop
  endfacet
  facet normal 0.0674139 -0.997725 0
    outer loop
      vertex 108.528 191.585 1.90735e-07
      vertex 108.75 191.6 3
      vertex 108.528 191.585 3
    endloop
  endfacet
  facet normal 0.0674139 -0.997725 0
    outer loop
      vertex 108.75 191.6 3
      vertex 108.528 191.585 1.90735e-07
      vertex 108.75 191.6 1.90735e-07
    endloop
  endfacet
  facet normal 0.750624 0.660729 0
    outer loop
      vertex 107.548 188.698 3
      vertex 107.401 188.865 1.90735e-07
      vertex 107.401 188.865 3
    endloop
  endfacet
  facet normal 0.750624 0.660729 0
    outer loop
      vertex 107.401 188.865 1.90735e-07
      vertex 107.548 188.698 3
      vertex 107.548 188.698 1.90735e-07
    endloop
  endfacet
  facet normal -0.997725 -0.0674139 0
    outer loop
      vertex 110.45 189.9 1.90735e-07
      vertex 110.435 190.122 3
      vertex 110.435 190.122 1.90735e-07
    endloop
  endfacet
  facet normal -0.997725 -0.0674139 0
    outer loop
      vertex 110.435 190.122 3
      vertex 110.45 189.9 1.90735e-07
      vertex 110.45 189.9 3
    endloop
  endfacet
  facet normal 0.750624 -0.660729 0
    outer loop
      vertex 107.401 190.935 3
      vertex 107.548 191.102 1.90735e-07
      vertex 107.548 191.102 3
    endloop
  endfacet
  facet normal 0.750624 -0.660729 0
    outer loop
      vertex 107.548 191.102 1.90735e-07
      vertex 107.401 190.935 3
      vertex 107.401 190.935 1.90735e-07
    endloop
  endfacet
  facet normal -0.750624 0.660729 0
    outer loop
      vertex 109.952 188.698 1.90735e-07
      vertex 110.099 188.865 3
      vertex 110.099 188.865 1.90735e-07
    endloop
  endfacet
  facet normal -0.750624 0.660729 0
    outer loop
      vertex 110.099 188.865 3
      vertex 109.952 188.698 1.90735e-07
      vertex 109.952 188.698 3
    endloop
  endfacet
  facet normal -0.832742 0.553661 0
    outer loop
      vertex 110.099 188.865 1.90735e-07
      vertex 110.222 189.05 3
      vertex 110.222 189.05 1.90735e-07
    endloop
  endfacet
  facet normal -0.832742 0.553661 0
    outer loop
      vertex 110.222 189.05 3
      vertex 110.099 188.865 1.90735e-07
      vertex 110.099 188.865 3
    endloop
  endfacet
  facet normal -0.0674139 0.997725 0
    outer loop
      vertex 108.972 188.215 1.90735e-07
      vertex 108.75 188.2 3
      vertex 108.972 188.215 3
    endloop
  endfacet
  facet normal -0.0674139 0.997725 0
    outer loop
      vertex 108.75 188.2 3
      vertex 108.972 188.215 1.90735e-07
      vertex 108.75 188.2 1.90735e-07
    endloop
  endfacet
  facet normal -0.981097 -0.193519 0
    outer loop
      vertex 110.435 190.122 1.90735e-07
      vertex 110.392 190.34 3
      vertex 110.392 190.34 1.90735e-07
    endloop
  endfacet
  facet normal -0.981097 -0.193519 0
    outer loop
      vertex 110.392 190.34 3
      vertex 110.435 190.122 1.90735e-07
      vertex 110.435 190.122 3
    endloop
  endfacet
  facet normal -0.318922 -0.947781 0
    outer loop
      vertex 109.19 191.542 1.90735e-07
      vertex 109.401 191.471 3
      vertex 109.19 191.542 3
    endloop
  endfacet
  facet normal -0.318922 -0.947781 -0
    outer loop
      vertex 109.401 191.471 3
      vertex 109.19 191.542 1.90735e-07
      vertex 109.401 191.471 1.90735e-07
    endloop
  endfacet
  facet normal 0.947781 0.318922 0
    outer loop
      vertex 107.179 189.249 3
      vertex 107.108 189.46 1.90735e-07
      vertex 107.108 189.46 3
    endloop
  endfacet
  facet normal 0.947781 0.318922 0
    outer loop
      vertex 107.108 189.46 1.90735e-07
      vertex 107.179 189.249 3
      vertex 107.179 189.249 1.90735e-07
    endloop
  endfacet
  facet normal -0.445413 -0.895325 0
    outer loop
      vertex 109.401 191.471 1.90735e-07
      vertex 109.6 191.372 3
      vertex 109.401 191.471 3
    endloop
  endfacet
  facet normal -0.445413 -0.895325 -0
    outer loop
      vertex 109.6 191.372 3
      vertex 109.401 191.471 1.90735e-07
      vertex 109.6 191.372 1.90735e-07
    endloop
  endfacet
  facet normal -0.553661 -0.832742 0
    outer loop
      vertex 109.6 191.372 1.90735e-07
      vertex 109.785 191.249 3
      vertex 109.6 191.372 3
    endloop
  endfacet
  facet normal -0.553661 -0.832742 -0
    outer loop
      vertex 109.785 191.249 3
      vertex 109.6 191.372 1.90735e-07
      vertex 109.785 191.249 1.90735e-07
    endloop
  endfacet
  facet normal -0.0674139 -0.997725 0
    outer loop
      vertex 108.75 191.6 1.90735e-07
      vertex 108.972 191.585 3
      vertex 108.75 191.6 3
    endloop
  endfacet
  facet normal -0.0674139 -0.997725 -0
    outer loop
      vertex 108.972 191.585 3
      vertex 108.75 191.6 1.90735e-07
      vertex 108.972 191.585 1.90735e-07
    endloop
  endfacet
  facet normal -0.193519 -0.981097 0
    outer loop
      vertex 108.972 191.585 1.90735e-07
      vertex 109.19 191.542 3
      vertex 108.972 191.585 3
    endloop
  endfacet
  facet normal -0.193519 -0.981097 -0
    outer loop
      vertex 109.19 191.542 3
      vertex 108.972 191.585 1.90735e-07
      vertex 109.19 191.542 1.90735e-07
    endloop
  endfacet
  facet normal -0.895325 0.445413 0
    outer loop
      vertex 110.222 189.05 1.90735e-07
      vertex 110.321 189.249 3
      vertex 110.321 189.249 1.90735e-07
    endloop
  endfacet
  facet normal -0.895325 0.445413 0
    outer loop
      vertex 110.321 189.249 3
      vertex 110.222 189.05 1.90735e-07
      vertex 110.222 189.05 3
    endloop
  endfacet
  facet normal -0.895325 -0.445413 0
    outer loop
      vertex 110.321 190.551 1.90735e-07
      vertex 110.222 190.75 3
      vertex 110.222 190.75 1.90735e-07
    endloop
  endfacet
  facet normal -0.895325 -0.445413 0
    outer loop
      vertex 110.222 190.75 3
      vertex 110.321 190.551 1.90735e-07
      vertex 110.321 190.551 3
    endloop
  endfacet
  facet normal -0.997725 0.0674139 0
    outer loop
      vertex 110.435 189.678 1.90735e-07
      vertex 110.45 189.9 3
      vertex 110.45 189.9 1.90735e-07
    endloop
  endfacet
  facet normal -0.997725 0.0674139 0
    outer loop
      vertex 110.45 189.9 3
      vertex 110.435 189.678 1.90735e-07
      vertex 110.435 189.678 3
    endloop
  endfacet
  facet normal -0.981097 0.193519 0
    outer loop
      vertex 110.392 189.46 1.90735e-07
      vertex 110.435 189.678 3
      vertex 110.435 189.678 1.90735e-07
    endloop
  endfacet
  facet normal -0.981097 0.193519 0
    outer loop
      vertex 110.435 189.678 3
      vertex 110.392 189.46 1.90735e-07
      vertex 110.392 189.46 3
    endloop
  endfacet
  facet normal -0.947781 0.318922 0
    outer loop
      vertex 110.321 189.249 1.90735e-07
      vertex 110.392 189.46 3
      vertex 110.392 189.46 1.90735e-07
    endloop
  endfacet
  facet normal -0.947781 0.318922 0
    outer loop
      vertex 110.392 189.46 3
      vertex 110.321 189.249 1.90735e-07
      vertex 110.321 189.249 3
    endloop
  endfacet
  facet normal 0.660729 -0.750624 0
    outer loop
      vertex 107.548 191.102 1.90735e-07
      vertex 107.715 191.249 3
      vertex 107.548 191.102 3
    endloop
  endfacet
  facet normal 0.660729 -0.750624 0
    outer loop
      vertex 107.715 191.249 3
      vertex 107.548 191.102 1.90735e-07
      vertex 107.715 191.249 1.90735e-07
    endloop
  endfacet
endsolid OpenSCAD_Model
